<?xml version="1.0" standalone="no"?>
<!DOCTYPE svg PUBLIC "-//W3C//DTD SVG 20010904//EN"
 "http://www.w3.org/TR/2001/REC-SVG-20010904/DTD/svg10.dtd">
<svg version="1.0" xmlns="http://www.w3.org/2000/svg"
 width="760.000000pt" height="763.000000pt" viewBox="0 0 760.000000 763.000000"
 preserveAspectRatio="xMidYMid meet">
<metadata>
Created by potrace 1.16, written by Peter Selinger 2001-2019
</metadata>
<g transform="translate(0.000000,763.000000) scale(0.100000,-0.100000)"
fill="#000000" stroke="none">
<path d="M1898 7623 c1046 -2 2758 -2 3805 0 1046 1 190 2 -1903 2 -2093 0
-2949 -1 -1902 -2z"/>
<path d="M2230 7219 c-246 -32 -341 -59 -504 -142 -306 -156 -505 -404 -571
-713 -63 -292 -30 -619 86 -864 132 -276 319 -466 736 -742 72 -48 134 -92
138 -97 9 -15 5 -2109 -4 -2159 -5 -23 -11 -46 -15 -49 -11 -11 -139 45 -216
95 -67 44 -176 146 -243 227 -83 102 -178 293 -241 487 -61 183 -83 291 -110
521 -7 65 -18 123 -23 128 -6 6 -41 9 -79 7 l-69 -3 -2 -465 c-2 -256 -7 -618
-13 -805 -5 -187 -6 -343 -1 -348 4 -4 39 -7 77 -5 60 3 69 6 72 23 1 11 12
62 24 114 18 78 27 100 55 127 24 25 43 34 66 34 43 0 123 -30 194 -73 117
-71 337 -172 456 -211 24 -8 21 -29 -10 -80 -47 -75 -113 -116 -246 -151 -50
-14 -94 -30 -99 -37 -13 -21 -9 -85 5 -97 10 -8 59 -8 183 0 110 8 287 9 509
4 187 -5 363 -8 390 -9 l50 -1 3 58 c2 31 -1 57 -6 57 -23 0 -201 32 -227 42
-179 62 -249 126 -290 266 -38 128 -40 203 -40 1212 l0 985 23 3 22 3 0 391 0
390 -25 30 c-24 28 -25 36 -25 159 0 84 4 129 11 129 10 0 67 -116 84 -170 4
-14 18 -47 30 -75 58 -128 55 -96 55 -540 l0 -412 147 -99 c163 -109 260 -181
312 -228 34 -32 65 -91 131 -256 21 -52 58 -142 83 -200 24 -58 75 -177 112
-265 37 -88 85 -203 107 -255 44 -105 45 -124 6 -235 -69 -198 -201 -346 -395
-444 -59 -29 -85 -39 -188 -70 -22 -7 -92 -18 -155 -24 -114 -12 -115 -13
-112 -37 2 -14 11 -41 20 -60 l17 -35 105 -3 c285 -9 609 86 851 250 47 32 89
58 93 58 8 0 37 -64 101 -220 26 -63 56 -135 67 -160 11 -25 38 -90 61 -145
l43 -100 49 0 49 0 66 170 c36 94 90 233 119 310 29 77 56 149 61 160 5 11 34
88 66 170 75 198 136 357 229 600 42 110 95 247 117 305 22 58 50 132 63 165
13 33 49 128 80 210 31 83 61 159 65 170 5 11 39 99 75 195 37 96 83 216 102
265 19 50 59 153 88 230 60 159 60 158 150 395 37 96 71 184 75 195 4 11 14
36 21 55 18 52 27 57 34 19 3 -19 4 -745 3 -1614 -4 -1435 -5 -1586 -21 -1648
-37 -153 -91 -190 -327 -223 -63 -9 -119 -21 -123 -28 -8 -11 -4 -93 6 -102 2
-3 116 0 253 6 324 13 994 13 1314 -1 288 -12 285 -12 277 59 -2 23 -6 45 -9
47 -2 2 -53 11 -113 20 -142 21 -176 31 -220 68 -44 36 -70 91 -84 178 -16 94
-15 3317 0 3408 6 36 20 82 29 102 22 42 76 97 104 105 12 3 30 9 41 13 44 18
118 31 175 31 66 0 80 12 80 69 0 40 -25 64 -59 55 -14 -3 -309 -9 -655 -13
l-630 -6 -23 -60 c-13 -33 -28 -69 -32 -80 -5 -11 -23 -56 -39 -100 -53 -140
-144 -379 -152 -400 -19 -45 -64 -163 -80 -210 -10 -27 -59 -158 -110 -290
-51 -132 -105 -274 -120 -315 -15 -41 -72 -190 -125 -330 -54 -140 -121 -318
-150 -395 -29 -77 -69 -180 -88 -230 -18 -49 -54 -144 -80 -210 -72 -190 -81
-209 -93 -194 -6 8 -46 100 -89 204 -43 105 -123 298 -177 430 -55 132 -131
317 -170 410 -38 94 -76 185 -84 203 -8 17 -20 47 -28 65 -8 17 -46 109 -84
202 -80 195 -206 498 -317 765 -42 102 -96 232 -120 290 -88 216 -107 259
-118 263 -7 2 -97 0 -202 -5 -104 -4 -422 -7 -705 -6 -283 2 -521 -1 -528 -6
-7 -4 -15 -6 -18 -3 -3 2 -12 47 -21 98 -14 79 -14 112 -5 209 14 142 40 230
98 327 59 101 120 166 213 231 170 119 269 146 531 146 189 1 213 -2 345 -46
264 -88 451 -282 604 -624 58 -132 105 -306 127 -476 8 -68 18 -126 20 -130 3
-5 39 -8 80 -8 l74 0 0 243 c0 285 18 918 29 1032 5 50 5 85 -2 93 -12 16
-129 16 -145 0 -7 -7 -12 -26 -12 -42 0 -44 -45 -184 -67 -208 -10 -11 -28
-24 -41 -29 -43 -16 -152 20 -263 88 -195 120 -306 175 -404 201 -76 21 -91
23 -210 37 -131 16 -283 17 -385 4z m-332 -1270 c105 -28 144 -55 182 -129 36
-71 57 -320 27 -320 -36 0 -243 198 -315 302 -43 60 -92 146 -92 159 0 16 120
9 198 -12z"/>
<path d="M1867 1417 c-134 -44 -164 -182 -61 -282 23 -22 72 -56 110 -75 98
-50 124 -75 124 -116 0 -27 -6 -36 -31 -49 -25 -13 -37 -14 -67 -4 -51 16
-101 55 -108 85 -7 26 -51 51 -65 37 -4 -4 -9 -29 -10 -56 -4 -57 6 -66 102
-92 137 -36 295 -4 340 69 23 38 24 97 2 143 -17 37 -91 97 -158 128 -51 25
-125 96 -125 121 0 38 28 64 70 64 31 0 44 -6 69 -35 17 -20 31 -42 31 -50 0
-18 35 -55 53 -55 6 0 17 15 24 33 6 17 18 50 26 72 8 21 13 44 11 50 -3 6
-31 11 -67 11 -34 1 -100 4 -147 7 -57 5 -97 3 -123 -6z"/>
<path d="M3377 1424 c-12 -13 -8 -59 8 -82 13 -18 15 -55 12 -229 -1 -115 -7
-218 -11 -230 -8 -23 -8 -23 104 -23 l112 0 -7 28 c-4 15 -9 45 -12 68 -4 37
-2 42 19 47 12 4 44 7 69 7 100 0 189 57 210 134 14 53 3 137 -24 178 -12 18
-45 44 -72 58 -45 23 -63 25 -185 27 -132 2 -169 6 -201 18 -8 3 -18 2 -22 -1z
m269 -70 c14 -10 32 -30 40 -45 18 -36 19 -159 1 -202 -15 -35 -54 -61 -83
-55 -17 3 -19 16 -22 152 -2 113 1 151 10 158 18 11 26 10 54 -8z"/>
<path d="M4694 1399 c5 -13 10 -35 13 -49 5 -29 -116 -407 -147 -457 l-20 -33
54 0 54 0 -1 48 c-1 69 9 92 41 93 15 0 47 1 72 3 69 4 92 -5 106 -45 7 -18
13 -49 13 -66 l1 -33 110 0 c61 0 110 3 110 6 0 3 -9 17 -20 31 -10 13 -49
114 -85 222 -55 167 -68 217 -74 272 -1 4 -38 9 -83 12 -46 4 -98 9 -117 13
-32 6 -34 6 -27 -17z m89 -181 c27 -76 47 -141 47 -155 0 -9 -19 -13 -70 -13
-57 0 -70 3 -70 16 0 12 26 97 55 182 8 23 23 12 38 -30z"/>
<path d="M5157 1414 c-11 -11 -8 -33 8 -68 13 -27 15 -70 13 -242 -2 -115 -7
-217 -12 -226 -7 -16 -2 -18 39 -18 47 0 47 0 40 28 -4 15 -10 92 -12 172 -4
142 -4 144 15 127 10 -10 41 -59 67 -110 101 -195 119 -211 247 -216 l91 -3
-9 28 c-11 36 -12 451 -1 481 7 19 3 24 -29 38 -20 8 -43 15 -50 15 -19 0 -18
-59 1 -84 21 -27 22 -336 2 -336 -15 0 -50 61 -150 260 l-72 145 -55 0 c-30 0
-71 4 -90 8 -19 5 -39 5 -43 1z"/>
<path d="M2850 1378 c0 -19 5 -39 10 -44 12 -12 15 -406 4 -449 l-6 -25 219 0
220 0 -1 82 c-2 67 -5 83 -18 86 -19 4 -57 -43 -65 -80 -8 -41 -25 -49 -90
-46 l-58 3 0 120 0 120 37 3 c31 3 38 -1 50 -25 7 -15 20 -28 28 -28 20 0 28
124 8 136 -16 10 -27 2 -38 -27 -8 -20 -16 -24 -50 -24 l-41 0 3 83 3 82 63 3
62 3 19 -43 c28 -67 105 -96 80 -30 -6 15 -8 46 -4 68 l6 42 -188 5 c-103 4
-203 9 -220 13 -32 6 -33 5 -33 -28z"/>
<path d="M3920 1383 c0 -16 7 -39 16 -51 13 -19 15 -53 12 -230 -2 -114 -7
-215 -12 -224 -7 -17 1 -18 103 -18 l112 0 -8 38 c-4 20 -8 75 -8 122 l0 85
67 3 66 3 4 -100 c3 -94 5 -102 30 -127 35 -35 124 -46 164 -19 25 16 25 17 7
37 -16 18 -18 40 -18 232 0 116 4 221 8 232 7 21 4 22 -75 27 -46 3 -98 9
-115 12 -32 7 -33 6 -33 -24 0 -18 7 -42 15 -55 12 -17 15 -43 13 -92 l-3 -69
-62 -3 c-60 -3 -63 -2 -69 24 -7 27 1 142 12 180 5 20 1 22 -78 27 -46 4 -98
9 -115 13 -31 6 -33 5 -33 -23z"/>
<path d="M2276 1313 c0 -62 4 -79 16 -81 18 -4 68 52 68 77 0 41 51 56 70 20
13 -23 8 -393 -5 -441 l-7 -28 112 0 c103 0 111 1 104 18 -5 9 -9 118 -9 242
l0 225 29 0 c26 0 31 -5 38 -35 9 -35 49 -80 71 -80 9 0 12 24 12 80 l0 80
-250 0 -250 0 1 -77z"/>
<path d="M3754 695 c-29 -30 -68 -110 -86 -177 -6 -26 -17 -48 -23 -48 -19 0
-83 -62 -104 -101 l-19 -37 27 -26 c37 -36 72 -35 36 0 -19 19 -11 58 22 102
37 49 47 42 40 -32 -6 -66 6 -109 37 -135 11 -9 14 9 18 106 3 73 9 128 18
143 7 14 13 39 12 55 -2 38 48 137 76 150 29 13 28 25 -3 25 -14 0 -37 -11
-51 -25z"/>
<path d="M3268 656 c-30 -25 -38 -52 -13 -42 20 7 19 -3 -14 -135 -42 -165
-47 -204 -27 -234 9 -14 24 -25 33 -25 15 0 15 2 -2 14 -22 16 -18 36 52 255
40 126 44 146 32 167 -16 30 -27 30 -61 0z"/>
<path d="M3112 635 c-25 -29 -31 -55 -8 -36 23 20 24 -3 1 -155 -12 -79 -19
-148 -15 -155 11 -16 17 -1 36 77 8 37 23 86 33 109 28 63 31 75 19 75 -7 0
-9 15 -5 43 9 67 -21 88 -61 42z"/>
<path d="M2985 624 c-16 -12 -17 -16 -6 -23 11 -7 11 -31 2 -141 -6 -73 -11
-141 -11 -151 0 -31 18 -21 25 14 19 99 29 137 48 180 16 36 18 50 9 59 -7 7
-12 22 -12 35 0 31 -30 45 -55 27z"/>
<path d="M3877 452 c-33 -16 -74 -74 -88 -125 -9 -33 -8 -41 8 -53 20 -15 63
-19 63 -5 0 5 -7 12 -16 15 -22 9 -10 60 29 118 44 67 84 64 58 -4 -28 -76
-32 -97 -19 -120 22 -40 41 -58 57 -57 10 0 11 2 4 6 -25 10 -25 67 1 147 14
44 23 83 20 88 -7 12 -85 5 -117 -10z"/>
</g>
</svg>
